<?xml version="1.0" encoding="UTF-8" standalone="no"?>
<!-- Created with Inkscape (http://www.inkscape.org/) -->

<svg
   xmlns:dc="http://purl.org/dc/elements/1.1/"
   xmlns:cc="http://creativecommons.org/ns#"
   xmlns:rdf="http://www.w3.org/1999/02/22-rdf-syntax-ns#"
   xmlns:svg="http://www.w3.org/2000/svg"
   xmlns="http://www.w3.org/2000/svg"
   xmlns:sodipodi="http://sodipodi.sourceforge.net/DTD/sodipodi-0.dtd"
   xmlns:inkscape="http://www.inkscape.org/namespaces/inkscape"
   width="54.813595mm"
   height="19.522682mm"
   viewBox="0 0 54.813595 19.522682"
   version="1.1"
   id="svg4589"
   inkscape:version="0.92.3 (2405546, 2018-03-11)"
   sodipodi:docname="stemq_logo_dark_bg.svg">
  <defs
     id="defs4583">
    <filter
       style="color-interpolation-filters:sRGB"
       inkscape:label="Colorize"
       id="filter5476-2-7-3-6">
      <feComposite
         k4="0"
         k3="0"
         in2="SourceGraphic"
         operator="arithmetic"
         k1="0"
         k2="1"
         result="composite1"
         id="feComposite5462-3-9-6-2" />
      <feColorMatrix
         in="composite1"
         values="1"
         type="saturate"
         result="colormatrix1"
         id="feColorMatrix5464-9-2-7-9" />
      <feFlood
         flood-opacity="1"
         flood-color="rgb(255,255,255)"
         result="flood1"
         id="feFlood5466-7-0-5-7" />
      <feBlend
         in="flood1"
         in2="colormatrix1"
         mode="multiply"
         result="blend1"
         id="feBlend5468-5-2-3-0" />
      <feBlend
         in2="blend1"
         mode="screen"
         result="blend2"
         id="feBlend5470-1-3-5-3" />
      <feColorMatrix
         in="blend2"
         values="1"
         type="saturate"
         result="colormatrix2"
         id="feColorMatrix5472-4-7-6-7" />
      <feComposite
         in="colormatrix2"
         in2="SourceGraphic"
         operator="in"
         result="composite2"
         id="feComposite5474-2-5-2-2" />
    </filter>
    <filter
       inkscape:collect="always"
       style="color-interpolation-filters:sRGB"
       id="filter965"
       x="-0.085086552"
       width="1.1701731"
       y="-0.29422352"
       height="1.588447">
      <feGaussianBlur
         inkscape:collect="always"
         stdDeviation="1.328532"
         id="feGaussianBlur967" />
    </filter>
  </defs>
  <sodipodi:namedview
     id="base"
     pagecolor="#ffffff"
     bordercolor="#666666"
     borderopacity="1.0"
     inkscape:pageopacity="0.0"
     inkscape:pageshadow="2"
     inkscape:zoom="0.98994949"
     inkscape:cx="334.2509"
     inkscape:cy="175.03706"
     inkscape:document-units="mm"
     inkscape:current-layer="layer1"
     showgrid="false"
     fit-margin-top="0"
     fit-margin-left="0"
     fit-margin-right="0"
     fit-margin-bottom="0"
     inkscape:window-width="1366"
     inkscape:window-height="713"
     inkscape:window-x="0"
     inkscape:window-y="27"
     inkscape:window-maximized="1" />
  <metadata
     id="metadata4586">
    <rdf:RDF>
      <cc:Work
         rdf:about="">
        <dc:format>image/svg+xml</dc:format>
        <dc:type
           rdf:resource="http://purl.org/dc/dcmitype/StillImage" />
        <dc:title />
      </cc:Work>
    </rdf:RDF>
  </metadata>
  <g
     inkscape:label="Layer 1"
     inkscape:groupmode="layer"
     id="layer1"
     transform="translate(-74.035976,-143.82966)">
    <path
       inkscape:connector-curvature="0"
       id="rect3554-5-6-1-5"
       d="m 75.226262,158.79966 h 2.552687 c 0.553998,0 1,0.44599 1,1 v 2.55268 c 0,0.554 -0.446002,1 -1,1 h -2.552687 c -0.553999,0 -1,-0.446 -1,-1 v -2.55268 c 0,-0.55401 0.446001,-1 1,-1 z"
       style="opacity:0.92070031;fill:#339c3a;fill-opacity:1;fill-rule:nonzero;stroke:none;stroke-width:0.1;stroke-miterlimit:4;stroke-dasharray:none;stroke-dashoffset:0;stroke-opacity:1" />
    <path
       id="path3595-9-2-0-7"
       d="m 77.033058,159.68615 c -0.05359,-0.0535 -0.124619,-0.0829 -0.200297,-0.0829 -0.07568,0 -0.14671,0.0295 -0.200523,0.083 l -0.159739,0.15997 c -0.05359,0.0535 -0.08316,0.12462 -0.08316,0.20041 0,0.0534 0.01461,0.10445 0.04203,0.14875 l -1.53814,0.61618 c -0.102868,0.0452 -0.17662,0.13799 -0.197352,0.248 -0.02096,0.11068 0.01416,0.2242 0.09448,0.30441 l 1.441051,1.42519 c 0.06208,0.0621 0.144558,0.0973 0.231678,0.0993 0.002,1.2e-4 0.0068,1.2e-4 0.0088,1.2e-4 0.02289,0 0.04611,-0.002 0.06911,-0.007 0.112611,-0.0233 0.204829,-0.10117 0.246633,-0.20709 l 0.605196,-1.51537 c 0.04554,0.03 0.09913,0.0461 0.154868,0.0461 0.0759,0 0.146937,-0.0296 0.200297,-0.083 l 0.159399,-0.15952 c 0.05404,-0.0537 0.08361,-0.12496 0.08361,-0.20086 0,-0.0759 -0.02968,-0.14728 -0.08293,-0.2003 z m -0.455766,2.90419 c -0.01405,0.0355 -0.04498,0.0616 -0.08236,0.0693 -0.0086,0.002 -0.01733,0.002 -0.02594,0.002 -0.02878,-6.8e-4 -0.05653,-0.0122 -0.07726,-0.0331 l -1.441958,-1.42609 c -0.02651,-0.0264 -0.03818,-0.0642 -0.03115,-0.10117 0.0069,-0.0367 0.03161,-0.0677 0.06593,-0.0827 l 0.704325,-0.28209 c 0.474573,0.15781 0.949259,0.006 1.424058,0.51229 z m 1.170627,-1.78851 -0.160192,0.16008 c -0.02209,0.0222 -0.058,0.0222 -0.0801,0 l -0.200297,-0.20018 -0.162232,0.40659 0.01348,-0.0343 c -0.341004,-0.34044 -0.687558,-0.38338 -1.000239,-0.42178 -0.100488,-0.0123 -0.197918,-0.0253 -0.293648,-0.0459 l 0.961947,-0.3853 -0.194293,-0.1943 c -0.02209,-0.0221 -0.02209,-0.058 0,-0.0801 l 0.160192,-0.16031 c 0.02209,-0.0221 0.05801,-0.0221 0.0801,0 l 0.875167,0.87539 c 0.02243,0.0221 0.02243,0.058 1.13e-4,0.0801 z"
       inkscape:connector-curvature="0"
       style="fill:#eaf8eb;fill-opacity:1;stroke-width:0.26458335" />
    <path
       id="path3597-8-9-93-8"
       d="m 76.559279,161.64244 c 0.156114,0 0.283225,-0.12699 0.283225,-0.28322 0,-0.15623 -0.126998,-0.28323 -0.283225,-0.28323 -0.156227,0 -0.283226,0.127 -0.283226,0.28323 0,0.15623 0.127112,0.28322 0.283226,0.28322 z m 0,-0.45316 c 0.0938,0 0.169935,0.0761 0.169935,0.16994 0,0.0938 -0.07613,0.16993 -0.169935,0.16993 -0.09392,0 -0.169935,-0.0761 -0.169935,-0.16993 0,-0.0938 0.07602,-0.16994 0.169935,-0.16994 z"
       inkscape:connector-curvature="0"
       style="fill:#eaf8eb;fill-opacity:1;stroke-width:0.26458335" />
    <path
       id="path3599-4-3-6-9"
       d="m 78.032051,159.26335 c -0.156227,0 -0.283225,0.127 -0.283225,0.28323 0,0.15622 0.126998,0.28322 0.283225,0.28322 0.156227,0 0.283225,-0.127 0.283225,-0.28322 0,-0.15623 -0.126998,-0.28323 -0.283225,-0.28323 z m 0,0.45316 c -0.0938,0 -0.169935,-0.0761 -0.169935,-0.16993 0,-0.0938 0.07613,-0.16994 0.169935,-0.16994 0.0938,0 0.169935,0.0761 0.169935,0.16994 0,0.0938 -0.07613,0.16993 -0.169935,0.16993 z"
       inkscape:connector-curvature="0"
       style="fill:#eaf8eb;fill-opacity:1;stroke-width:0.26458335" />
    <path
       id="path3601-9-1-0-4"
       d="m 75.596312,161.18928 c 0,0.12496 0.101622,0.22658 0.226581,0.22658 0.124959,0 0.22658,-0.10162 0.22658,-0.22658 0,-0.12496 -0.101621,-0.22658 -0.22658,-0.22658 -0.124959,0 -0.226581,0.10162 -0.226581,0.22658 z m 0.226581,-0.11329 c 0.06254,0 0.11329,0.0506 0.11329,0.11329 0,0.0626 -0.05075,0.11329 -0.11329,0.11329 -0.06254,0 -0.11329,-0.0506 -0.11329,-0.11329 0,-0.0626 0.05075,-0.11329 0.11329,-0.11329 z"
       inkscape:connector-curvature="0"
       style="fill:#eaf8eb;fill-opacity:1;stroke-width:0.26458335" />
    <path
       style="fill:#eaf8eb;fill-opacity:1;stroke-width:0.26458335"
       d="m 76.276053,161.86902 a 0.11329017,0.11329017 0 0 1 -0.11329,0.11329 0.11329017,0.11329017 0 0 1 -0.11329,-0.11329 0.11329017,0.11329017 0 0 1 0.11329,-0.11329 0.11329017,0.11329017 0 0 1 0.11329,0.11329 z"
       id="circle3603-32-9-62-1"
       inkscape:connector-curvature="0" />
    <path
       style="fill:#eaf8eb;fill-opacity:1;stroke-width:0.26458335"
       d="m 78.088696,160.16967 a 0.11329017,0.11329017 0 0 1 -0.11329,0.11329 0.11329017,0.11329017 0 0 1 -0.11329,-0.11329 0.11329017,0.11329017 0 0 1 0.11329,-0.11329 0.11329017,0.11329017 0 0 1 0.11329,0.11329 z"
       id="circle3605-4-4-6-6"
       inkscape:connector-curvature="0" />
    <path
       inkscape:connector-curvature="0"
       id="rect3554-2-8-4-8-3"
       d="m 83.344634,158.79965 h 2.552686 c 0.553996,0 1.000001,0.44601 1.000001,1.00001 v 2.55268 c 0,0.55401 -0.446005,1 -1.000001,1 h -2.552686 c -0.553997,0 -1.000001,-0.44599 -1.000001,-1 v -2.55268 c 0,-0.554 0.446004,-1.00001 1.000001,-1.00001 z"
       style="opacity:0.92070031;fill:#226ae8;fill-opacity:1;fill-rule:nonzero;stroke:none;stroke-width:0.1;stroke-miterlimit:4;stroke-dasharray:none;stroke-dashoffset:0;stroke-opacity:1" />
    <path
       inkscape:connector-curvature="0"
       style="fill:#ffffff;fill-opacity:1;stroke:none;stroke-width:0.26458332;stroke-opacity:1"
       d="m 85.421666,160.7779 -1.153942,-0.6726 c -0.03174,-0.0185 -0.07241,-0.008 -0.09087,0.024 l -0.672609,1.15394 c -0.01844,0.0317 -0.0077,0.0724 0.02394,0.0909 l 1.153942,0.67261 c 0.03174,0.0185 0.07241,0.008 0.09088,-0.0239 l 0.672601,-1.15396 c 0.01844,-0.0317 0.0077,-0.0724 -0.02394,-0.0909 z m -0.730011,1.12048 -1.03913,-0.60567 0.605676,-1.03913 1.03913,0.60567 z"
       id="path4890-9-5-7-5"
       inkscape:export-filename="/tmp/stemq_full.png"
       inkscape:export-xdpi="124"
       inkscape:export-ydpi="124" />
    <path
       inkscape:connector-curvature="0"
       style="fill:#e5f0fc;fill-opacity:1;stroke-width:0.47447473;filter:url(#filter5476-2-7-3-6)"
       d="m 104.22866,280.19282 c 0.0568,0.0331 0.12982,0.0139 0.16296,-0.0429 0.0331,-0.0569 0.0139,-0.12982 -0.043,-0.16296 l -0.817,-0.4762 0.28205,-0.48389 0.81699,0.4762 c 0.0569,0.0332 0.12982,0.0139 0.16296,-0.0429 0.0331,-0.0568 0.0139,-0.12981 -0.0429,-0.16296 l -0.817,-0.4762 0.22708,-0.38959 c 0.0331,-0.0568 0.0139,-0.12982 -0.0429,-0.16295 l -0.3896,-0.22709 0.47622,-0.817 c 0.0331,-0.0569 0.0139,-0.12982 -0.043,-0.16296 -0.0568,-0.0332 -0.12982,-0.0139 -0.16296,0.0429 l -0.47621,0.81701 -0.48389,-0.28205 0.47621,-0.817 c 0.0331,-0.0569 0.0139,-0.12982 -0.043,-0.16295 -0.0569,-0.0332 -0.12981,-0.0139 -0.16295,0.0429 l -0.47621,0.817 -0.48389,-0.28204 0.47621,-0.81701 c 0.0331,-0.0568 0.0139,-0.12981 -0.0429,-0.16295 -0.0569,-0.0331 -0.12982,-0.0139 -0.16296,0.0429 l -0.47621,0.817 -0.48389,-0.28204 0.47621,-0.81701 c 0.0331,-0.0568 0.0139,-0.12981 -0.0429,-0.16295 -0.0569,-0.0331 -0.12981,-0.0139 -0.16295,0.0429 l -0.47621,0.81701 -0.38959,-0.22708 c -0.0568,-0.0331 -0.12982,-0.0139 -0.16296,0.0429 l -0.22708,0.38959 -0.817001,-0.47621 c -0.05686,-0.0331 -0.12982,-0.0139 -0.162956,0.0429 -0.03314,0.0569 -0.01391,0.12982 0.04294,0.16295 l 0.817007,0.47622 -0.28205,0.48388 -0.817002,-0.47621 c -0.05686,-0.0331 -0.129821,-0.0139 -0.162956,0.043 -0.03314,0.0569 -0.01391,0.12981 0.04294,0.16295 l 0.817008,0.47621 -0.282048,0.48389 -0.817005,-0.47621 c -0.05686,-0.0331 -0.129816,-0.0139 -0.162956,0.0429 -0.03314,0.0568 -0.01391,0.12981 0.04294,0.16295 l 0.817005,0.47621 -0.282049,0.4839 -0.817005,-0.47621 c -0.05686,-0.0331 -0.129817,-0.0139 -0.162956,0.0429 -0.03314,0.0568 -0.01391,0.12982 0.04294,0.16295 l 0.817005,0.47622 -0.227076,0.38958 c -0.03314,0.0568 -0.01391,0.12981 0.04294,0.16295 l 0.389594,0.22709 -0.47621,0.817 c -0.03314,0.0568 -0.01392,0.12981 0.04294,0.16295 0.05685,0.0331 0.129816,0.0139 0.162955,-0.0429 l 0.47621,-0.817 0.483886,0.28204 -0.476208,0.81701 c -0.03314,0.0568 -0.01392,0.12981 0.04294,0.16295 0.05685,0.0331 0.129816,0.0139 0.162955,-0.0429 l 0.476213,-0.817 0.48388,0.28204 -0.47621,0.817 c -0.0331,0.0569 -0.0139,0.12982 0.0429,0.16296 0.0568,0.0331 0.12981,0.0139 0.16295,-0.0429 l 0.47621,-0.81701 0.48389,0.28205 -0.47621,0.817 c -0.0331,0.0569 -0.0139,0.12982 0.0429,0.16296 0.0569,0.0331 0.12982,0.0139 0.16296,-0.0429 l 0.47621,-0.81701 0.38959,0.22708 c 0.0568,0.0331 0.12981,0.0139 0.16295,-0.0429 l 0.22708,-0.38959 0.81701,0.47621 c 0.0568,0.0331 0.12981,0.0139 0.16295,-0.043 0.0331,-0.0568 0.0139,-0.12981 -0.0429,-0.16295 l -0.817,-0.47621 0.28205,-0.48389 0.817,0.47621 c 0.0568,0.0331 0.12981,0.0139 0.16295,-0.0429 0.0331,-0.0569 0.0139,-0.12982 -0.0429,-0.16296 l -0.817,-0.4762 0.28205,-0.48389 z m -1.99408,1.07 -2.848548,-1.66034 1.660338,-2.84854 2.84854,1.66034 z"
       id="path4892-33-0-9-4"
       inkscape:export-filename="/tmp/stemq_full.png"
       inkscape:export-xdpi="124"
       inkscape:export-ydpi="124"
       transform="matrix(0.55763414,0,0,0.55763414,27.796733,5.4914276)" />
    <path
       inkscape:connector-curvature="0"
       id="rect3554-8-9-6-02-7"
       d="m 91.462995,158.79966 h 2.552687 c 0.553998,0 1,0.446 1,0.99999 v 2.55269 c 0,0.554 -0.446002,1 -1,1 h -2.552687 c -0.553999,0 -1,-0.446 -1,-1 v -2.55269 c 0,-0.55399 0.446001,-0.99999 1,-0.99999 z"
       style="opacity:0.92070031;fill:#e60d4e;fill-opacity:1;fill-rule:nonzero;stroke:none;stroke-width:0.1;stroke-miterlimit:4;stroke-dasharray:none;stroke-dashoffset:0;stroke-opacity:1" />
    <path
       id="path5587-8-5-3-6"
       d="m 92.739389,161.24421 -0.156514,-0.30369 0.02102,-0.0257 c 0.04906,-0.0631 0.08877,-0.13082 0.116801,-0.20324 l 0.01168,-0.0304 0.343395,-0.014 0.0257,-0.20324 -0.327044,-0.0981 -0.0047,-0.0327 c -0.0093,-0.0771 -0.02803,-0.15418 -0.06074,-0.2266 l -0.01402,-0.035 0.233602,-0.2523 -0.123809,-0.16353 -0.301347,0.16119 -0.0257,-0.021 c -0.06074,-0.0491 -0.130817,-0.0888 -0.203234,-0.11681 l -0.03037,-0.0117 -0.01869,-0.3434 -0.203234,-0.028 -0.09811,0.32706 -0.0327,0.005 c -0.07943,0.009 -0.156513,0.028 -0.22893,0.0607 l -0.03037,0.014 -0.252291,-0.23127 -0.163522,0.12381 0.161186,0.29902 -0.02102,0.0257 c -0.04906,0.0631 -0.08877,0.13082 -0.119137,0.20324 l -0.01168,0.0327 -0.338723,0.0117 -0.02803,0.20324 0.322371,0.10279 0.0047,0.0327 c 0.0093,0.0794 0.03037,0.15652 0.06074,0.22894 l 0.01402,0.0304 -0.231267,0.24763 0.12381,0.16352 0.301347,-0.15418 0.0257,0.021 c 0.06307,0.0491 0.130817,0.0888 0.20557,0.11914 l 0.03271,0.0117 0.01168,0.33873 0.203234,0.028 0.102785,-0.32472 0.0327,-0.005 c 0.07943,-0.009 0.156514,-0.0304 0.22893,-0.0607 l 0.03037,-0.014 0.247618,0.23361 z m -0.467205,-0.14717 c -0.06774,0.0304 -0.137825,0.049 -0.212578,0.0561 l -0.07008,0.007 -0.09811,0.31304 -0.105121,-0.014 -0.01168,-0.32705 -0.06774,-0.0257 c -0.06774,-0.0257 -0.133153,-0.0631 -0.189218,-0.1098 l -0.05606,-0.0444 -0.292003,0.15184 -0.06541,-0.0841 0.224259,-0.23828 -0.02803,-0.0654 c -0.03037,-0.0677 -0.04906,-0.14016 -0.05606,-0.21258 l -0.007,-0.0701 -0.313028,-0.10045 0.01402,-0.10512 0.32938,-0.0117 0.0257,-0.0677 c 0.0257,-0.0678 0.06307,-0.13082 0.109793,-0.18923 l 0.04672,-0.0561 -0.154178,-0.28968 0.0841,-0.0654 0.242947,0.22427 0.06541,-0.028 c 0.06775,-0.028 0.137826,-0.049 0.210242,-0.0561 l 0.07242,-0.007 0.09578,-0.31537 0.105121,0.014 0.01402,0.33173 0.06541,0.0257 c 0.06775,0.0257 0.130817,0.0631 0.189218,0.10979 l 0.05607,0.0444 0.292003,-0.15652 0.06541,0.0841 -0.224258,0.24529 0.02803,0.0654 c 0.02803,0.0678 0.04906,0.13783 0.05607,0.21025 l 0.0093,0.0724 0.317699,0.0958 -0.01402,0.10512 -0.331715,0.014 -0.0257,0.0678 c -0.0257,0.0677 -0.06307,0.13082 -0.107457,0.18922 l -0.04438,0.0561 0.151841,0.29435 -0.0841,0.0654 -0.24061,-0.22427 z"
       inkscape:connector-curvature="0"
       style="fill:#ffffff;fill-opacity:0.99607843;stroke:#fdfdfd;stroke-width:0.04999999;stroke-miterlimit:4;stroke-dasharray:none;stroke-opacity:0.97925313" />
    <path
       id="path5589-1-4-61-0"
       d="m 91.980181,160.06915 c -0.07709,0 -0.149505,0.0257 -0.212578,0.0724 -0.151842,0.11681 -0.18221,0.3364 -0.06541,0.48825 0.06541,0.0864 0.168194,0.13549 0.277987,0.13549 0.07709,0 0.149506,-0.0257 0.212578,-0.0724 0.07475,-0.0561 0.121474,-0.13783 0.133154,-0.23127 0.01168,-0.0935 -0.01168,-0.18456 -0.06775,-0.25697 -0.06775,-0.0841 -0.168194,-0.1355 -0.277987,-0.1355 z m 0.287331,0.38779 c -0.0093,0.0771 -0.04906,0.14484 -0.112129,0.19156 -0.05139,0.0397 -0.112129,0.0607 -0.175202,0.0607 -0.0911,0 -0.175202,-0.042 -0.231266,-0.11447 -0.09578,-0.12615 -0.07242,-0.3107 0.05373,-0.40648 0.05139,-0.0397 0.11213,-0.0607 0.175202,-0.0607 0.0911,0 0.175202,0.042 0.231267,0.11447 0.04906,0.0607 0.06774,0.13783 0.0584,0.21492 z"
       inkscape:connector-curvature="0"
       style="fill:#ffffff;fill-opacity:0.99607843;stroke:#fdfdfd;stroke-width:0.04999999;stroke-miterlimit:4;stroke-dasharray:none;stroke-opacity:0.97925313" />
    <path
       id="path5591-3-7-06-6"
       d="m 92.405338,160.09251 c -0.102785,-0.13316 -0.256963,-0.21025 -0.425157,-0.21025 -0.119137,0 -0.231266,0.0374 -0.324707,0.1098 -0.233603,0.17988 -0.280323,0.51628 -0.100449,0.75222 0.102785,0.13316 0.256962,0.21025 0.425156,0.21025 0,0 0,0 0,0 0.119137,0 0.231267,-0.0374 0.324708,-0.10979 0.114465,-0.0864 0.186881,-0.21259 0.20557,-0.35509 0.01869,-0.1425 -0.01869,-0.28267 -0.105121,-0.39714 z m 0.04672,0.3878 c -0.01635,0.12848 -0.08176,0.24061 -0.18221,0.3177 -0.0841,0.0654 -0.184546,0.0981 -0.289667,0.0981 -0.149505,0 -0.289667,-0.0677 -0.380772,-0.18689 -0.161185,-0.21025 -0.119137,-0.50927 0.08877,-0.67046 0.0841,-0.0631 0.184546,-0.0981 0.289667,-0.0981 0.149506,0 0.289667,0.0677 0.380772,0.18688 0.07709,0.10046 0.112129,0.22661 0.09344,0.35276 z"
       inkscape:connector-curvature="0"
       style="fill:#ffffff;fill-opacity:0.99607843;stroke:#fdfdfd;stroke-width:0.04999999;stroke-miterlimit:4;stroke-dasharray:none;stroke-opacity:0.97925313" />
    <path
       id="path5593-4-4-3-2"
       d="m 94.239116,162.0268 0.01168,-0.0304 0.343395,-0.014 0.0257,-0.20324 -0.327043,-0.0981 -0.0047,-0.0327 c -0.0093,-0.0771 -0.03037,-0.15419 -0.06074,-0.22661 l -0.01402,-0.0304 0.233603,-0.25229 -0.12381,-0.16353 -0.301347,0.16119 -0.0257,-0.021 c -0.06074,-0.0491 -0.130817,-0.0888 -0.203234,-0.1168 l -0.03037,-0.0117 -0.01402,-0.34341 -0.203234,-0.028 -0.09811,0.32705 -0.03504,0.005 c -0.07943,0.009 -0.156514,0.028 -0.22893,0.0607 l -0.03037,0.014 -0.25229,-0.23127 -0.163522,0.12381 0.161186,0.29902 -0.02103,0.0257 c -0.04906,0.0631 -0.08877,0.13082 -0.119137,0.20324 l -0.01168,0.0327 -0.338723,0.0117 -0.02803,0.20325 0.322372,0.10278 0.0047,0.0327 c 0.0093,0.0794 0.03037,0.15652 0.06074,0.22894 l 0.01402,0.0304 -0.231266,0.24762 0.123809,0.16353 0.299011,-0.15885 0.0257,0.021 c 0.06307,0.0491 0.130817,0.0888 0.20557,0.11914 l 0.0327,0.0117 0.01168,0.33874 0.203234,0.028 0.102785,-0.32472 0.03271,-0.005 c 0.07943,-0.009 0.156513,-0.0304 0.22893,-0.0607 l 0.03037,-0.014 0.247619,0.23361 0.163522,-0.12381 -0.156514,-0.30369 0.02102,-0.0257 c 0.04906,-0.0631 0.08643,-0.13316 0.116801,-0.20558 z m -0.05606,0.51628 -0.0841,0.0654 -0.240611,-0.22426 -0.06541,0.028 c -0.06775,0.0304 -0.137826,0.0491 -0.212578,0.0561 l -0.07008,0.007 -0.09811,0.31303 -0.105121,-0.014 -0.01168,-0.32706 -0.06774,-0.0257 c -0.06775,-0.0257 -0.133153,-0.0631 -0.189218,-0.1098 l -0.05606,-0.0444 -0.292003,0.15185 -0.06541,-0.0841 0.224258,-0.23828 -0.02803,-0.0654 c -0.03037,-0.0677 -0.04906,-0.14017 -0.05607,-0.21259 l -0.007,-0.0701 -0.313027,-0.10045 0.01402,-0.10513 0.32938,-0.0117 0.0257,-0.0678 c 0.0257,-0.0677 0.06307,-0.13082 0.109793,-0.18922 l 0.04672,-0.0561 -0.154177,-0.28967 0.0841,-0.0654 0.242946,0.22426 0.06541,-0.028 c 0.06775,-0.028 0.137825,-0.0491 0.210242,-0.0561 l 0.07242,-0.007 0.09578,-0.31537 0.105121,0.014 0.01402,0.33172 0.06541,0.0257 c 0.06774,0.0257 0.130817,0.0631 0.189218,0.1098 l 0.05606,0.0444 0.292003,-0.15652 0.06541,0.0841 -0.224259,0.24529 0.02803,0.0654 c 0.02803,0.0677 0.04906,0.13783 0.05606,0.21025 l 0.0093,0.0724 0.3177,0.0958 -0.01402,0.10513 -0.331716,0.014 -0.0257,0.0677 c -0.0257,0.0678 -0.06307,0.13082 -0.107457,0.18923 l -0.04439,0.0561 z"
       inkscape:connector-curvature="0"
       style="fill:#ffffff;fill-opacity:0.99607843;stroke:#fdfdfd;stroke-width:0.04999999;stroke-miterlimit:4;stroke-dasharray:none;stroke-opacity:0.97925313" />
    <path
       id="path5595-1-4-2-6"
       d="m 93.498597,161.38671 c -0.07709,0 -0.149506,0.0257 -0.212578,0.0724 -0.151842,0.11681 -0.18221,0.3364 -0.06541,0.48825 0.06541,0.0864 0.168194,0.13549 0.277987,0.13549 0.07709,0 0.149505,-0.0257 0.212578,-0.0724 0.151842,-0.1168 0.18221,-0.3364 0.06541,-0.48824 -0.06775,-0.0864 -0.168194,-0.1355 -0.277987,-0.1355 z m 0.175202,0.57702 c -0.05139,0.0397 -0.11213,0.0607 -0.175202,0.0607 -0.0911,0 -0.175202,-0.0421 -0.231267,-0.11447 -0.09811,-0.12615 -0.07242,-0.30837 0.05373,-0.40648 0.05139,-0.0397 0.112129,-0.0607 0.175202,-0.0607 0.0911,0 0.175202,0.042 0.231266,0.11447 0.09811,0.12848 0.07475,0.3107 -0.05373,0.40648 z"
       inkscape:connector-curvature="0"
       style="fill:#ffffff;fill-opacity:0.99607843;stroke:#fdfdfd;stroke-width:0.04999999;stroke-miterlimit:4;stroke-dasharray:none;stroke-opacity:0.97925313" />
    <path
       id="path5597-4-3-0-9"
       d="m 93.498597,161.19749 c -0.119137,0 -0.231267,0.0374 -0.324708,0.10979 -0.233602,0.17988 -0.280322,0.51628 -0.100449,0.75223 0.102785,0.13316 0.256963,0.21025 0.425157,0.21025 0,0 0,0 0,0 0.119137,0 0.231266,-0.0374 0.324707,-0.1098 0.114465,-0.0864 0.186882,-0.21258 0.20557,-0.35509 0.01869,-0.1425 -0.01869,-0.28266 -0.105121,-0.39713 -0.102785,-0.13316 -0.256962,-0.21025 -0.425156,-0.21025 z m 0.474213,0.60038 c -0.01635,0.12615 -0.08176,0.23828 -0.18221,0.31537 -0.0841,0.0654 -0.184546,0.0981 -0.289667,0.0981 -0.149506,0 -0.289667,-0.0678 -0.380772,-0.18689 -0.161186,-0.21025 -0.119137,-0.50927 0.08877,-0.67046 0.0841,-0.0631 0.184546,-0.0981 0.289667,-0.0981 0.149505,0 0.289667,0.0678 0.380772,0.18689 0.07475,0.10279 0.109793,0.2266 0.09344,0.35509 z"
       inkscape:connector-curvature="0"
       style="fill:#ffffff;fill-opacity:0.99607843;stroke:#fdfdfd;stroke-width:0.04999999;stroke-miterlimit:4;stroke-dasharray:none;stroke-opacity:0.97925313" />
    <path
       inkscape:connector-curvature="0"
       id="rect3554-8-1-6-8-1-2"
       d="m 99.581392,158.79965 h 2.552688 c 0.55399,0 1,0.446 1,1 v 2.55268 c 0,0.554 -0.44601,1 -1,1 h -2.552688 c -0.553997,0 -1.000001,-0.446 -1.000001,-1 v -2.55268 c 0,-0.554 0.446004,-1 1.000001,-1 z"
       style="opacity:0.91140035;fill:#f16000;fill-opacity:1;fill-rule:nonzero;stroke:none;stroke-width:0.1;stroke-miterlimit:4;stroke-dasharray:none;stroke-dashoffset:0;stroke-opacity:1" />
    <path
       id="path5807-8-6-5-9"
       d="m 102.0193,159.46168 -1.03628,3.22861 h -0.49726 l -0.43082,-1.18445 h -0.138573 c -0.02917,0 -0.05705,-0.004 -0.08356,-0.0123 -0.02651,-0.009 -0.05002,-0.0215 -0.07026,-0.0398 -0.02016,-0.0184 -0.03629,-0.042 -0.04839,-0.0712 -0.01201,-0.0291 -0.01793,-0.0645 -0.01793,-0.10629 v -0.18222 h 0.698443 c 0.0417,0 0.0769,0.01 0.10533,0.0294 0.0285,0.0197 0.0478,0.0441 0.0578,0.0731 l 0.11012,0.43843 c 0.0215,0.0607 0.0386,0.12243 0.0512,0.18504 0.0127,0.0626 0.0227,0.12628 0.0305,0.19079 0.009,-0.0494 0.0189,-0.099 0.0304,-0.14897 0.0114,-0.05 0.0246,-0.1016 0.0399,-0.15467 l 0.65284,-2.14294 c 0.0101,-0.0292 0.0289,-0.0534 0.0569,-0.0731 0.0278,-0.0197 0.0609,-0.0294 0.0987,-0.0294 z"
       inkscape:connector-curvature="0"
       style="fill:#ffffff;fill-opacity:1;stroke:#f16000;stroke-width:0.26458341;stroke-opacity:1"
       inkscape:export-filename="/tmp/stemq_full.png"
       inkscape:export-xdpi="124"
       inkscape:export-ydpi="124" />
    <path
       inkscape:connector-curvature="0"
       id="path2333-6"
       style="fill:#ffffff;fill-opacity:1;fill-rule:evenodd;stroke:none;stroke-width:0.35277775;opacity:0.999;filter:url(#filter965)"
       d="m 100.35094,148.57543 c 0.66551,-0.665 1.51181,-1.00616 2.53013,-1.00616 0.6587,0 1.25924,0.19707 1.78649,0.58108 0.32659,0.22681 0.58464,0.51547 0.78436,0.84715 0.20376,-0.26838 0.43905,-0.5206 0.70161,-0.6959 0.68544,-0.49288 1.45883,-0.73233 2.30285,-0.73233 0.96193,0 1.75576,0.36919 2.33358,1.14224 0.50964,0.68132 0.71935,1.47867 0.71935,2.32398 v 4.76484 c 0,0.28634 -0.10535,0.53891 -0.31189,0.73782 -0.20409,0.19642 -0.45632,0.29581 -0.73914,0.29581 -0.28236,0 -0.5336,-0.0994 -0.73418,-0.29945 -0.20006,-0.20058 -0.29945,-0.45135 -0.29945,-0.73418 v -4.46757 c 0,-0.44269 -0.0525,-1.02197 -0.31857,-1.39467 -0.23808,-0.33388 -0.6989,-0.39984 -1.0794,-0.39984 -0.96317,0 -1.61874,0.59274 -2.09268,1.37805 v 4.88403 c 0,0.28634 -0.10534,0.53942 -0.31175,0.73816 -0.2047,0.19608 -0.45594,0.29547 -0.73915,0.29547 -0.28295,0 -0.53359,-0.0994 -0.73426,-0.29945 -0.20011,-0.20058 -0.29997,-0.45101 -0.29997,-0.73418 v -4.46757 c 0,-0.44222 -0.052,-1.02232 -0.31805,-1.39467 -0.23813,-0.33388 -0.69993,-0.39984 -1.07984,-0.39984 -0.96329,0 -1.61835,0.59274 -2.09275,1.37805 v 4.88403 c 0,0.28686 -0.10569,0.53891 -0.31223,0.73816 -0.203754,0.19608 -0.45585,0.29547 -0.738205,0.29547 -0.282826,0 -0.534536,-0.0994 -0.734645,-0.29997 -0.200194,-0.20006 -0.299584,-0.45083 -0.299584,-0.73366 v -7.09791 c 0,-0.28283 0.09939,-0.53445 0.295941,-0.73867 0.19878,-0.20654 0.451348,-0.31176 0.738288,-0.31176 0.286855,0 0.538952,0.10522 0.741845,0.30811 0.17264,0.17217 0.27468,0.38038 0.3013,0.61533 z m -22.83246,6.28968 c 0.62214,0 1.547036,-0.0728 1.547036,-0.8847 0,-0.14958 -0.07993,-0.23084 -0.208723,-0.29778 -0.26654,-0.13959 -0.569295,-0.23847 -0.859408,-0.31673 -0.395673,-0.10616 -0.793833,-0.20688 -1.192293,-0.30395 -0.436389,-0.10617 -0.861121,-0.25754 -1.261938,-0.4613 -0.393488,-0.19972 -0.737303,-0.46909 -1.013829,-0.81376 -0.299455,-0.37501 -0.426918,-0.82053 -0.426918,-1.2976 0,-0.42464 0.05735,-0.85846 0.220038,-1.25281 0.150907,-0.36374 0.375402,-0.67952 0.674986,-0.93621 0.727359,-0.62299 1.686156,-0.8141 2.620053,-0.8141 0.855679,0 1.691128,0.14276 2.49709,0.43009 0.202423,0.0728 0.375402,0.19569 0.497036,0.37416 0.11649,0.17032 0.174821,0.3628 0.174821,0.56882 0,0.24117 -0.106161,0.45083 -0.271511,0.623 -0.15455,0.16136 -0.349686,0.28732 -0.580996,0.28732 -0.178465,0 -0.36323,-0.0429 -0.532737,-0.0957 -0.534065,-0.16681 -1.092431,-0.23543 -1.650926,-0.23543 -0.403817,0 -0.924382,0.0475 -1.268582,0.28099 -0.194751,0.13243 -0.361087,0.30639 -0.361087,0.55485 0,0.19522 0.06236,0.33666 0.231824,0.43823 0.258397,0.15502 0.555195,0.26204 0.845307,0.34112 0.393531,0.10753 0.790191,0.20426 1.187836,0.29461 0.434547,0.0989 0.859279,0.24082 1.266867,0.4387 0.935268,0.47976 1.448076,1.25063 1.448076,2.30868 0,0.78299 -0.297313,1.43857 -0.89781,1.94237 -0.72153,0.60723 -1.663955,0.79602 -2.585208,0.79602 -1.11189,0 -2.176849,-0.23945 -3.177562,-0.79696 -0.249439,-0.17615 -0.403946,-0.42375 -0.403946,-0.7337 0,-0.26071 0.08139,-0.49884 0.253897,-0.69578 0.159992,-0.1821 0.366915,-0.30494 0.614511,-0.30494 0.216009,0 0.435533,0.0705 0.631612,0.1576 0.627627,0.28111 1.295798,0.40493 1.982484,0.40493 z m 5.517446,-5.344 H 82.15136 c -0.370516,0 -0.604525,-0.23362 -0.604525,-0.60405 0,-0.2002 0.09708,-0.36555 0.238981,-0.4907 l 2.244994,-2.19532 c 0.131963,-0.13144 0.293756,-0.23396 0.485721,-0.23396 0.170321,0 0.322556,0.0677 0.437375,0.19329 0.108348,0.11881 0.166679,0.26568 0.166679,0.427 v 1.03368 h 1.580938 c 0.25561,0 0.486106,0.0859 0.667228,0.26701 0.18125,0.18078 0.267525,0.41247 0.267525,0.66783 0,0.25574 -0.08589,0.48657 -0.267054,0.66821 -0.181593,0.18112 -0.412089,0.26701 -0.667699,0.26701 h -1.580938 v 4.70643 c 0,0.22046 0.03656,0.48799 0.242239,0.61314 0.127805,0.0776 0.3583,0.0908 0.502864,0.0908 0.13912,0 0.392545,-0.004 0.523136,-0.0547 0.166335,-0.0655 0.340171,-0.0949 0.518636,-0.0949 0.228652,0 0.432018,0.0877 0.600539,0.24079 0.20238,0.1848 0.276483,0.44234 0.276483,0.71038 0,0.34648 -0.188407,0.5999 -0.498835,0.74313 -0.407117,0.18708 -0.88418,0.35779 -1.33737,0.35779 -0.318056,0 -0.637441,-0.014 -0.95284,-0.0519 -0.3262,-0.0394 -0.630627,-0.15138 -0.904967,-0.31904 -0.777033,-0.45083 -1.054544,-1.23567 -1.054544,-2.1036 z m 7.463371,3.45812 c 0.104875,0.4897 0.321356,0.93205 0.7004,1.28487 0.484735,0.45143 1.14442,0.58472 1.787733,0.58472 0.6773,0 1.393344,-0.094 2.005541,-0.39996 0.19608,-0.098 0.419761,-0.17932 0.641599,-0.17932 0.234481,0 0.439689,0.10217 0.609497,0.25805 0.181636,0.16668 0.292298,0.37858 0.292298,0.62703 0,0.38316 -0.168008,0.69359 -0.50865,0.87569 -0.214209,0.11469 -0.43069,0.22536 -0.649742,0.32886 -0.211509,0.0999 -0.430561,0.18249 -0.654713,0.24811 -0.580096,0.16981 -1.199108,0.22668 -1.802176,0.22668 -1.253753,0 -2.465504,-0.31394 -3.366013,-1.22791 -0.912124,-0.92537 -1.208065,-2.18049 -1.208065,-3.44594 0,-1.16482 0.279655,-2.27706 1.003842,-3.20564 0.809606,-1.03727 1.940096,-1.4683 3.239922,-1.4683 1.242952,0 2.33127,0.40566 3.14769,1.35863 0.757231,0.88323 1.079402,1.94356 1.079402,3.10016 0,0.27884 -0.09437,0.52909 -0.287798,0.73065 -0.204694,0.21139 -0.471748,0.30362 -0.76306,0.30362 z m -0.02074,-1.80368 h 4.239392 c -0.08229,-0.52446 -0.30507,-0.98357 -0.727016,-1.34315 -0.402617,-0.343 -0.872908,-0.4934 -1.400159,-0.4934 -0.874751,0 -1.489605,0.37819 -1.894879,1.15209 -0.112505,0.21468 -0.180651,0.44685 -0.217338,0.68446" />
    <path
       inkscape:connector-curvature="0"
       id="path2337-0"
       style="opacity:0.93000034;fill:#f8a310;fill-opacity:1;fill-rule:evenodd;stroke:none;stroke-width:0.35277775;filter:url(#filter2136)"
       d="m 114.76051,143.82966 h 13.00559 c 0.59592,0 1.08347,0.4875 1.08347,1.08341 v 13.00565 c 0,0.59598 -0.48755,1.08345 -1.08347,1.08345 h -1.16289 c 0.051,-0.22955 0.0786,-0.46898 0.0786,-0.71427 0,-2.96619 -3.1026,-3.62176 -5.41858,-3.62176 -1.79587,0 -3.25072,-1.45432 -3.25072,-3.25021 0,-1.79649 1.45485,-3.2512 3.25072,-3.2512 1.79647,0 3.25082,1.45471 3.25082,3.2512 0,0.43275 -0.0854,0.84755 -0.2386,1.22622 -0.0587,0.1391 -0.0907,0.28187 -0.0907,0.43325 0,0.59817 0.48559,1.08295 1.08382,1.08295 0.43818,0 0.83399,-0.26292 1.00216,-0.66773 0.26556,-0.63977 0.41112,-1.34049 0.41112,-2.07469 0,-2.9923 -2.42629,-5.41888 -5.41857,-5.41888 -2.99182,0 -5.41845,2.42658 -5.41845,5.41888 0,2.99184 2.42663,5.41796 5.41845,5.41796 2.06751,0 3.94199,0.82691 5.31009,2.16828 h -11.81284 c -0.59604,0 -1.08347,-0.48747 -1.08347,-1.08345 v -13.00565 c -1e-5,-0.59591 0.48743,-1.08341 1.08347,-1.08341"
       inkscape:export-filename="/tmp/stemqirelandscape.png"
       inkscape:export-xdpi="96"
       inkscape:export-ydpi="96" />
  </g>
</svg>
